<svg xmlns="http://www.w3.org/2000/svg" viewBox="0 0 34.364082 24.685638" width="16" height="16">
  <defs>
    <clipPath clipPathUnits="userSpaceOnUse" id="clipPath102">
      <path d="M 0,500 H 500 V 0 H 0 Z"/>
    </clipPath>
  </defs>
  <g transform="translate(-103.09596,-166.94606)">
    <g transform="matrix(0.35277777,0,0,-0.35277777,70.124185,277.01507)">
      <g clip-path="url(#clipPath102)">
        <g transform="translate(188.1163,304.8566)">
          <path d="m 0,0 c -2.964,0.188 -5.779,0.22 -8.46,0.134 0.418,-1.201 0.554,-2.409 0.452,-3.586 2.279,0.062 4.664,0.033 7.161,-0.108 v -43.294 c -23.217,1.251 -37.643,-6.79 -43.299,-10.797 v 37.016 c -1.224,0.055 -2.425,0.191 -3.604,0.403 v -38.147 c 0,-1.226 0.679,-2.331 1.771,-2.883 0.464,-0.235 0.964,-0.351 1.461,-0.351 0.677,0 1.35,0.215 1.921,0.635 4.93,3.635 18.913,11.926 42.232,10.487 0.828,-0.051 1.613,0.239 2.202,0.794 0.584,0.55 0.92,1.324 0.92,2.126 V -2.937 C 2.757,-1.389 1.546,-0.099 0,0" fill="currentColor" fill-opacity="1" fill-rule="nonzero" stroke="none"/>
        </g>
        <g transform="translate(140.3663,284.6247)">
          <path d="m 0,0 v -37.419 c -5.255,3.724 -18.065,10.929 -38.471,10.929 -1.564,0 -3.175,-0.042 -4.828,-0.132 v 43.294 c 3.215,0.182 6.247,0.18 9.1,0.033 -0.252,1.196 -0.306,2.422 -0.163,3.607 -3.071,0.148 -6.329,0.138 -9.785,-0.08 -1.545,-0.099 -2.756,-1.389 -2.756,-2.937 v -44.634 c 0,-0.802 0.335,-1.576 0.92,-2.125 0.589,-0.556 1.399,-0.839 2.203,-0.795 23.316,1.433 37.3,-6.853 42.231,-10.487 0.57,-0.42 1.243,-0.635 1.92,-0.635 0.498,0 0.997,0.116 1.461,0.35 1.093,0.552 1.772,1.658 1.772,2.884 V -0.403 C 2.38,-0.348 1.179,-0.212 0,0" fill="currentColor" fill-opacity="1" fill-rule="nonzero" stroke="none"/>
        </g>
        <g transform="translate(143.9699,295.2116)">
          <path d="m 0,0 v -47.142 c 5.017,4.765 15.964,12.574 32.925,11.415 V 13.061 C 13.023,14.532 2.312,2.866 0,0 m -2.822,-50.161 c -10e-4,-10e-4 -0.002,-0.002 -0.003,-0.003 0.001,0.001 0.002,0.002 0.003,0.003 m 1.259,-3.019 c -0.22,0 -0.442,0.038 -0.66,0.116 -0.826,0.291 -1.381,1.103 -1.381,2.024 V 0.233 c 0,0.654 0.22,1.294 0.619,1.803 l 10e-4,0.002 c 2.182,2.777 14.213,16.534 36.829,14.565 1.505,-0.13 2.684,-1.418 2.684,-2.932 v -50.129 c 0,-0.813 -0.343,-1.595 -0.942,-2.145 -0.605,-0.558 -1.425,-0.836 -2.248,-0.77 -20.354,1.686 -31.36,-10.578 -33.358,-13.054 -0.392,-0.486 -0.958,-0.753 -1.544,-0.753" fill="currentColor" fill-opacity="1" fill-rule="nonzero" stroke="none"/>
        </g>
        <g transform="translate(110.8146,259.6013)">
          <path d="M 0,0 C 15.053,0 24.875,-7.089 29.552,-11.529 V 35.61 C 27.24,38.476 16.537,50.142 -3.373,48.671 V -0.116 C -2.221,-0.038 -1.096,0 0,0 m 32.37,-14.545 c 0.001,-0.002 0.004,-0.005 0.006,-0.007 -0.002,0.002 -0.005,0.005 -0.006,0.007 m -1.255,-3.024 c -0.588,0 -1.154,0.267 -1.548,0.757 -1.993,2.472 -12.989,14.743 -33.355,13.05 -0.829,-0.066 -1.642,0.212 -2.247,0.769 -0.598,0.551 -0.942,1.333 -0.942,2.146 v 50.128 c 0,1.514 1.179,2.802 2.685,2.932 22.625,1.961 34.646,-11.789 36.828,-14.565 0.4,-0.508 0.619,-1.149 0.619,-1.804 V -15.43 c 0,-0.921 -0.555,-1.734 -1.382,-2.025 -0.217,-0.076 -0.439,-0.114 -0.658,-0.114" fill="currentColor" fill-opacity="1" fill-rule="nonzero" stroke="none"/>
        </g>
        <g transform="translate(143.9694,289.4304)">
          <path d="m 0,0 c -0.12,0 -0.241,0.036 -0.346,0.11 -0.271,0.191 -0.336,0.566 -0.144,0.837 0.104,0.148 2.622,3.669 8.023,7.064 4.966,3.121 13.407,6.702 25.426,6.017 0.332,-0.019 0.585,-0.302 0.566,-0.634 -0.019,-0.331 -0.3,-0.575 -0.633,-0.565 C 21.222,13.494 13.036,10.038 8.225,7.026 3.007,3.76 0.516,0.289 0.491,0.254 0.375,0.088 0.188,0 0,0" fill="currentColor" fill-opacity="1" fill-rule="nonzero" stroke="none"/>
        </g>
        <g transform="translate(143.9694,280.2326)">
          <path d="m 0,0 c -0.12,0 -0.241,0.036 -0.346,0.11 -0.271,0.192 -0.336,0.566 -0.144,0.837 0.104,0.148 2.622,3.67 8.023,7.064 4.966,3.121 13.407,6.706 25.426,6.017 0.332,-0.019 0.585,-0.302 0.566,-0.633 -0.019,-0.332 -0.3,-0.575 -0.633,-0.566 C 21.222,13.493 13.036,10.039 8.225,7.027 3.007,3.76 0.516,0.289 0.491,0.254 0.375,0.089 0.188,0 0,0" fill="currentColor" fill-opacity="1" fill-rule="nonzero" stroke="none"/>
        </g>
        <g transform="translate(143.9694,271.0358)">
          <path d="m 0,0 c -0.12,0 -0.241,0.036 -0.346,0.11 -0.271,0.191 -0.336,0.566 -0.144,0.837 0.104,0.148 2.622,3.669 8.023,7.064 4.966,3.121 13.407,6.701 25.426,6.017 0.332,-0.019 0.585,-0.302 0.566,-0.633 -0.019,-0.332 -0.3,-0.576 -0.633,-0.566 C 21.222,13.491 13.036,10.039 8.225,7.026 3.007,3.76 0.516,0.289 0.491,0.254 0.375,0.088 0.188,0 0,0" fill="currentColor" fill-opacity="1" fill-rule="nonzero" stroke="none"/>
        </g>
        <g transform="translate(143.9694,261.8386)">
          <path d="m 0,0 c -0.12,0 -0.241,0.036 -0.346,0.11 -0.271,0.191 -0.336,0.566 -0.144,0.837 0.104,0.148 2.622,3.669 8.023,7.064 4.966,3.121 13.407,6.704 25.426,6.017 0.332,-0.019 0.585,-0.302 0.566,-0.634 -0.019,-0.331 -0.3,-0.575 -0.633,-0.565 C 21.222,13.489 13.036,10.039 8.225,7.026 3.007,3.76 0.516,0.289 0.491,0.254 0.375,0.088 0.188,0 0,0" fill="currentColor" fill-opacity="1" fill-rule="nonzero" stroke="none"/>
        </g>
        <g transform="translate(143.9694,252.6408)">
          <path d="m 0,0 c -0.12,0 -0.241,0.037 -0.346,0.11 -0.271,0.192 -0.336,0.566 -0.144,0.837 0.104,0.148 2.622,3.669 8.023,7.064 4.966,3.121 13.407,6.701 25.426,6.017 0.332,-0.019 0.585,-0.302 0.566,-0.633 -0.019,-0.332 -0.3,-0.576 -0.633,-0.566 C 21.222,13.488 13.036,10.039 8.225,7.026 3.007,3.76 0.516,0.289 0.491,0.254 0.375,0.089 0.188,0 0,0" fill="currentColor" fill-opacity="1" fill-rule="nonzero" stroke="none"/>
        </g>
        <g transform="translate(140.3668,289.4304)">
          <path d="m 0,0 c -0.188,0 -0.375,0.088 -0.491,0.254 -0.098,0.138 -10.075,13.833 -32.401,12.575 -0.337,-0.008 -0.614,0.234 -0.633,0.565 -0.019,0.332 0.234,0.615 0.565,0.634 12.019,0.684 20.462,-2.896 25.426,-6.017 C -2.132,4.616 0.386,1.095 0.49,0.947 0.682,0.676 0.616,0.301 0.346,0.11 0.24,0.036 0.12,0 0,0" fill="currentColor" fill-opacity="1" fill-rule="nonzero" stroke="none"/>
        </g>
        <g transform="translate(140.3668,280.2326)">
          <path d="m 0,0 c -0.188,0 -0.375,0.089 -0.491,0.254 -0.098,0.139 -10.075,13.834 -32.401,12.575 -0.337,-0.008 -0.614,0.234 -0.633,0.566 -0.019,0.331 0.234,0.614 0.565,0.633 12.019,0.688 20.462,-2.896 25.426,-6.017 C -2.132,4.617 0.386,1.095 0.49,0.947 0.682,0.676 0.616,0.302 0.346,0.11 0.24,0.036 0.12,0 0,0" fill="currentColor" fill-opacity="1" fill-rule="nonzero" stroke="none"/>
        </g>
        <g transform="translate(140.3668,271.0358)">
          <path d="m 0,0 c -0.188,0 -0.375,0.088 -0.491,0.254 -0.098,0.139 -10.075,13.835 -32.401,12.575 -0.337,-0.008 -0.614,0.234 -0.633,0.566 -0.019,0.331 0.234,0.614 0.565,0.633 12.019,0.684 20.462,-2.896 25.426,-6.017 C -2.132,4.616 0.386,1.095 0.49,0.947 0.682,0.676 0.616,0.301 0.346,0.11 0.24,0.036 0.12,0 0,0" fill="currentColor" fill-opacity="1" fill-rule="nonzero" stroke="none"/>
        </g>
        <g transform="translate(140.3668,261.8386)">
          <path d="m 0,0 c -0.188,0 -0.375,0.088 -0.491,0.254 -0.098,0.139 -10.075,13.836 -32.401,12.575 -0.337,-0.009 -0.614,0.234 -0.633,0.565 -0.019,0.332 0.234,0.615 0.565,0.634 12.019,0.688 20.462,-2.896 25.426,-6.017 C -2.132,4.616 0.386,1.095 0.49,0.947 0.682,0.676 0.616,0.301 0.346,0.11 0.24,0.036 0.12,0 0,0" fill="currentColor" fill-opacity="1" fill-rule="nonzero" stroke="none"/>
        </g>
        <g transform="translate(140.3668,252.6408)">
          <path d="m 0,0 c -0.188,0 -0.375,0.089 -0.491,0.254 -0.098,0.138 -10.075,13.838 -32.401,12.575 -0.337,-0.008 -0.614,0.234 -0.633,0.566 -0.019,0.331 0.234,0.614 0.565,0.633 12.019,0.686 20.462,-2.897 25.426,-6.017 C -2.132,4.616 0.386,1.095 0.49,0.947 0.682,0.676 0.616,0.302 0.346,0.11 0.24,0.037 0.12,0 0,0" fill="currentColor" fill-opacity="1" fill-rule="nonzero" stroke="none"/>
        </g>
      </g>
    </g>
  </g>
</svg>
